<mxfile host="app.diagrams.net" modified="2024-07-05T09:03:58.555Z" agent="Mozilla/5.0 (Windows NT 10.0; Win64; x64) AppleWebKit/537.36 (KHTML, like Gecko) Chrome/126.0.0.0 Safari/537.36" etag="IGWu8HolkG2GswznI3pM" version="24.6.4" type="device">
  <diagram name="ページ1" id="G9DuIOJiRCYQijhlGP8S">
    <mxGraphModel dx="880" dy="468" grid="1" gridSize="10" guides="1" tooltips="1" connect="1" arrows="1" fold="1" page="1" pageScale="1" pageWidth="827" pageHeight="1169" math="0" shadow="0">
      <root>
        <mxCell id="0" />
        <mxCell id="1" parent="0" />
        <mxCell id="wjGBHsYlGVUpgM-gkU09-4" style="rounded=0;orthogonalLoop=1;jettySize=auto;html=1;exitX=1;exitY=0.5;exitDx=0;exitDy=0;entryX=0;entryY=0.5;entryDx=0;entryDy=0;fontStyle=4;endArrow=none;endFill=0;" edge="1" parent="1" source="wjGBHsYlGVUpgM-gkU09-1" target="wjGBHsYlGVUpgM-gkU09-3">
          <mxGeometry relative="1" as="geometry" />
        </mxCell>
        <mxCell id="wjGBHsYlGVUpgM-gkU09-1" value="A：受講生" style="rounded=0;whiteSpace=wrap;html=1;fontStyle=4" vertex="1" parent="1">
          <mxGeometry x="80" y="80" width="120" height="60" as="geometry" />
        </mxCell>
        <mxCell id="wjGBHsYlGVUpgM-gkU09-7" style="rounded=0;orthogonalLoop=1;jettySize=auto;html=1;exitX=1;exitY=0.5;exitDx=0;exitDy=0;entryX=0;entryY=0.5;entryDx=0;entryDy=0;fontStyle=4;endArrow=none;endFill=0;" edge="1" parent="1" source="wjGBHsYlGVUpgM-gkU09-2" target="wjGBHsYlGVUpgM-gkU09-3">
          <mxGeometry relative="1" as="geometry" />
        </mxCell>
        <mxCell id="wjGBHsYlGVUpgM-gkU09-8" style="rounded=0;orthogonalLoop=1;jettySize=auto;html=1;exitX=1;exitY=0.5;exitDx=0;exitDy=0;entryX=0;entryY=0.5;entryDx=0;entryDy=0;fontStyle=4;endArrow=none;endFill=0;" edge="1" parent="1" source="wjGBHsYlGVUpgM-gkU09-2" target="wjGBHsYlGVUpgM-gkU09-6">
          <mxGeometry relative="1" as="geometry" />
        </mxCell>
        <mxCell id="wjGBHsYlGVUpgM-gkU09-2" value="B：受講生" style="rounded=0;whiteSpace=wrap;html=1;fontStyle=4" vertex="1" parent="1">
          <mxGeometry x="80" y="160" width="120" height="60" as="geometry" />
        </mxCell>
        <mxCell id="wjGBHsYlGVUpgM-gkU09-3" value="第n回L1セミナ：セミナ" style="rounded=0;whiteSpace=wrap;html=1;fontStyle=4" vertex="1" parent="1">
          <mxGeometry x="320" y="120" width="140" height="60" as="geometry" />
        </mxCell>
        <mxCell id="wjGBHsYlGVUpgM-gkU09-6" value="第m回L1セミナ：セミナ" style="rounded=0;whiteSpace=wrap;html=1;fontStyle=4" vertex="1" parent="1">
          <mxGeometry x="320" y="200" width="140" height="60" as="geometry" />
        </mxCell>
        <mxCell id="wjGBHsYlGVUpgM-gkU09-11" style="rounded=0;orthogonalLoop=1;jettySize=auto;html=1;exitX=0;exitY=0.5;exitDx=0;exitDy=0;entryX=1;entryY=0.5;entryDx=0;entryDy=0;fontStyle=4;endArrow=none;endFill=0;" edge="1" parent="1" source="wjGBHsYlGVUpgM-gkU09-9" target="wjGBHsYlGVUpgM-gkU09-3">
          <mxGeometry relative="1" as="geometry" />
        </mxCell>
        <mxCell id="wjGBHsYlGVUpgM-gkU09-13" style="rounded=0;orthogonalLoop=1;jettySize=auto;html=1;exitX=0;exitY=0.5;exitDx=0;exitDy=0;entryX=1;entryY=0.5;entryDx=0;entryDy=0;fontStyle=4;endArrow=none;endFill=0;" edge="1" parent="1" source="wjGBHsYlGVUpgM-gkU09-9" target="wjGBHsYlGVUpgM-gkU09-6">
          <mxGeometry relative="1" as="geometry" />
        </mxCell>
        <mxCell id="wjGBHsYlGVUpgM-gkU09-9" value="P講師：講師" style="rounded=0;whiteSpace=wrap;html=1;fontStyle=4" vertex="1" parent="1">
          <mxGeometry x="580" y="80" width="120" height="60" as="geometry" />
        </mxCell>
        <mxCell id="wjGBHsYlGVUpgM-gkU09-12" style="rounded=0;orthogonalLoop=1;jettySize=auto;html=1;entryX=1;entryY=0.5;entryDx=0;entryDy=0;exitX=0;exitY=0.5;exitDx=0;exitDy=0;fontStyle=4;endArrow=none;endFill=0;" edge="1" parent="1" source="wjGBHsYlGVUpgM-gkU09-10" target="wjGBHsYlGVUpgM-gkU09-3">
          <mxGeometry relative="1" as="geometry" />
        </mxCell>
        <mxCell id="wjGBHsYlGVUpgM-gkU09-10" value="Q講師：講師" style="rounded=0;whiteSpace=wrap;html=1;fontStyle=4" vertex="1" parent="1">
          <mxGeometry x="580" y="180" width="120" height="60" as="geometry" />
        </mxCell>
        <mxCell id="wjGBHsYlGVUpgM-gkU09-14" value="受講する" style="text;html=1;align=center;verticalAlign=middle;resizable=0;points=[];autosize=1;strokeColor=none;fillColor=none;" vertex="1" parent="1">
          <mxGeometry x="200" y="210" width="70" height="30" as="geometry" />
        </mxCell>
        <mxCell id="wjGBHsYlGVUpgM-gkU09-15" value="受講する" style="text;html=1;align=center;verticalAlign=middle;resizable=0;points=[];autosize=1;strokeColor=none;fillColor=none;" vertex="1" parent="1">
          <mxGeometry x="210" y="90" width="70" height="30" as="geometry" />
        </mxCell>
        <mxCell id="wjGBHsYlGVUpgM-gkU09-16" value="受講する" style="text;html=1;align=center;verticalAlign=middle;resizable=0;points=[];autosize=1;strokeColor=none;fillColor=none;" vertex="1" parent="1">
          <mxGeometry x="200" y="150" width="70" height="30" as="geometry" />
        </mxCell>
        <mxCell id="wjGBHsYlGVUpgM-gkU09-17" value="講義する" style="text;html=1;align=center;verticalAlign=middle;resizable=0;points=[];autosize=1;strokeColor=none;fillColor=none;" vertex="1" parent="1">
          <mxGeometry x="505" y="90" width="70" height="30" as="geometry" />
        </mxCell>
        <mxCell id="wjGBHsYlGVUpgM-gkU09-18" value="講義する" style="text;html=1;align=center;verticalAlign=middle;resizable=0;points=[];autosize=1;strokeColor=none;fillColor=none;" vertex="1" parent="1">
          <mxGeometry x="540" y="140" width="70" height="30" as="geometry" />
        </mxCell>
        <mxCell id="wjGBHsYlGVUpgM-gkU09-19" value="講義する" style="text;html=1;align=center;verticalAlign=middle;resizable=0;points=[];autosize=1;strokeColor=none;fillColor=none;" vertex="1" parent="1">
          <mxGeometry x="505" y="200" width="70" height="30" as="geometry" />
        </mxCell>
      </root>
    </mxGraphModel>
  </diagram>
</mxfile>
